<svg width="521" height="234" viewBox="0 0 521 234" fill="none" xmlns="http://www.w3.org/2000/svg">
<g clip-path="url(#clip0_6_922)">
<path d="M455.15 58.6127C453.193 59.0643 451.368 59.7727 449.661 60.6531C451.125 59.656 452.896 58.8509 455.089 58.3449C457.281 57.8388 459.225 57.7871 460.978 58.0417C459.059 57.9974 457.106 58.1611 455.15 58.6127ZM472.565 25.8683C468.076 14.8617 456.141 8.38201 444.193 11.1397C432.247 13.897 424.359 24.9507 425.147 36.8109C421.448 40.1932 418.371 44.1496 415.96 48.5592C410.198 41.5128 400.757 37.9026 391.303 40.0846C385.548 41.413 380.728 44.6658 377.366 49.0093C372.439 46.579 366.681 45.7677 360.926 47.0961C355.171 48.4245 350.348 51.6778 346.986 56.0192C342.062 53.5905 336.302 52.7797 330.546 54.108C324.791 55.4364 319.971 58.6893 316.609 63.0327C311.682 60.6024 305.924 59.7911 300.169 61.1195C294.414 62.4479 289.592 65.7033 286.23 70.0445C281.305 67.616 275.545 66.8031 269.79 68.1315C264.034 69.4599 259.214 72.7127 255.852 77.0561C250.926 74.6259 245.167 73.8146 239.412 75.143C233.657 76.4713 228.835 79.7267 225.474 84.0679C220.549 81.6394 214.788 80.8265 209.033 82.1549C203.278 83.4833 198.458 86.7361 195.096 91.0796C190.169 88.6493 184.411 87.838 178.656 89.1664C172.9 90.4948 168.08 93.7476 164.718 98.091C159.792 95.6608 154.033 94.8495 148.278 96.1779C142.523 97.5062 137.701 100.762 134.34 105.103C129.415 102.674 123.654 101.861 117.899 103.19C112.144 104.518 107.324 107.771 103.962 112.114C99.0348 109.684 93.2768 108.873 87.5215 110.201C81.7663 111.53 76.9454 114.785 73.583 119.126C68.658 116.698 62.8973 115.885 57.1421 117.213C51.3876 118.541 46.5668 121.794 43.2056 126.138C38.2781 123.708 32.52 122.896 26.7648 124.225L19.1691 125.978C10.6064 127.954 5.26718 136.498 7.24355 145.061L7.68081 146.955C9.559 155.092 17.3692 160.319 25.4902 159.121L35.7735 203.674C38.8337 216.932 52.1105 225.229 65.3687 222.169C71.124 220.841 75.9461 217.587 79.3078 213.246C84.2327 215.675 89.9929 216.486 95.7481 215.157C101.503 213.829 106.323 210.576 109.686 206.235C114.612 208.663 120.37 209.474 126.125 208.146C131.881 206.817 136.703 203.564 140.064 199.223C144.989 201.651 150.75 202.462 156.505 201.134C162.26 199.805 167.08 196.553 170.443 192.211C175.369 194.639 181.127 195.451 186.882 194.122C192.637 192.794 197.459 189.541 200.821 185.199C205.746 187.628 211.506 188.439 217.261 187.111C223.016 185.782 227.837 182.529 231.199 178.188C236.125 180.616 241.884 181.427 247.639 180.099C253.394 178.77 258.216 175.517 261.578 171.176C266.503 173.604 272.262 174.415 278.018 173.087C283.773 171.759 288.593 168.506 291.955 164.164C296.882 166.593 302.64 167.404 308.396 166.075C314.15 164.747 318.972 161.494 322.335 157.153C327.26 159.581 333.019 160.392 338.774 159.064C344.53 157.735 349.35 154.482 352.712 150.141C357.638 152.569 363.396 153.381 369.152 152.052C374.907 150.724 379.729 147.47 383.091 143.129C388.016 145.558 393.776 146.369 399.531 145.04C405.286 143.712 410.106 140.459 413.469 136.118C418.395 138.546 424.153 139.357 429.908 138.029C435.421 136.756 439.583 132.757 441.332 127.788C450.38 131.736 460.762 132.742 471.679 130.222C499.933 123.701 514.688 97.5853 507.563 66.7169C502.671 45.5219 489.49 30.8648 472.565 25.8683Z" fill="#FFE100"/>
<path d="M426.33 122.525C421.62 123.612 416.905 120.666 415.817 115.955L403.502 62.5974C402.656 58.9317 398.985 56.6369 395.319 57.483C391.655 58.3288 389.361 62.0003 390.207 65.666L402.522 119.023C403.61 123.734 400.663 128.449 395.953 129.536C391.242 130.623 386.526 127.677 385.439 122.967L373.123 69.6092C372.277 65.9435 368.605 63.6489 364.942 64.4945C361.275 65.3408 358.981 69.0123 359.827 72.678L372.143 126.035C373.23 130.746 370.284 135.461 365.573 136.548C360.863 137.635 356.148 134.689 355.061 129.978L342.745 76.6208C341.899 72.9551 338.228 70.6604 334.562 71.5065C330.898 72.3523 328.604 76.0237 329.45 79.6895L341.766 133.047C342.853 137.758 339.906 142.472 335.196 143.56C330.486 144.647 325.769 141.701 324.682 136.99L312.366 83.6326C311.52 79.9669 307.849 77.6723 304.185 78.518C300.52 79.3637 298.227 83.0352 299.073 86.701L311.388 140.058C312.476 144.769 309.527 149.484 304.816 150.572C300.106 151.659 295.392 148.712 294.305 144.002L281.989 90.6441C281.143 86.9784 277.471 84.6838 273.805 85.5299C270.142 86.3755 267.847 90.0472 268.693 93.7129L281.009 147.07C282.096 151.781 279.15 156.496 274.439 157.583C269.729 158.67 265.012 155.724 263.925 151.014L251.61 97.6561C250.763 93.9903 247.092 91.6958 243.428 92.5414C239.764 93.3872 237.47 97.0586 238.316 100.724L250.632 154.082C251.719 158.793 248.771 163.508 244.06 164.595C239.35 165.682 234.635 162.736 233.548 158.025L221.232 104.668C220.386 101.002 216.714 98.7072 213.049 99.5534C209.385 100.399 207.091 104.071 207.937 107.736L220.252 161.094C221.34 165.805 218.393 170.519 213.682 171.606C208.972 172.694 204.256 169.748 203.168 165.037L190.853 111.68C190.007 108.014 186.336 105.719 182.671 106.565C179.007 107.411 176.713 111.082 177.559 114.748L189.875 168.105C190.962 172.816 188.014 177.531 183.304 178.618C178.593 179.706 173.878 176.759 172.791 172.048L160.475 118.691C159.629 115.025 155.958 112.731 152.294 113.576C148.628 114.422 146.334 118.094 147.18 121.76L159.495 175.117C160.583 179.828 157.637 184.543 152.926 185.63C148.216 186.717 143.499 183.771 142.412 179.06L130.096 125.703C129.25 122.037 125.579 119.742 121.915 120.588C118.251 121.434 115.956 125.106 116.803 128.771L129.118 182.129C130.205 186.84 127.257 191.554 122.547 192.642C117.836 193.729 113.122 190.783 112.034 186.072L99.7188 132.714C98.8727 129.049 95.2017 126.754 91.5374 127.6C87.8716 128.446 85.5771 132.117 86.4232 135.783L98.7387 189.141C99.8261 193.852 96.8798 198.566 92.1697 199.653C87.4588 200.74 82.7423 197.795 81.655 193.084L69.3394 139.726C68.4933 136.061 64.8223 133.766 61.158 134.612C57.4943 135.457 55.1997 139.129 56.0458 142.795L68.3614 196.152C69.4488 200.863 66.5011 205.578 61.7903 206.665C57.0801 207.752 52.365 204.806 51.2776 200.095L38.962 146.738C38.1159 143.072 34.445 140.777 30.7807 141.623L23.1849 143.376L22.7477 141.482L30.3434 139.729C35.0542 138.641 39.7692 141.59 40.8565 146.301L53.1721 199.658C54.0179 203.322 57.6893 205.616 61.353 204.771C65.0187 203.925 67.3135 200.254 66.4677 196.589L54.1521 143.232C53.0648 138.521 56.0106 133.804 60.7207 132.717C65.4315 131.63 70.1465 134.578 71.2338 139.289L83.5494 192.647C84.3952 196.311 88.0666 198.605 91.7324 197.759C95.3961 196.913 97.6908 193.242 96.845 189.578L84.5294 136.22C83.4421 131.509 86.39 126.792 91.1001 125.705C95.8103 124.618 100.526 127.566 101.613 132.277L113.929 185.635C114.775 189.299 118.445 191.593 122.11 190.747C125.775 189.901 128.07 186.23 127.224 182.566L114.908 129.209C113.821 124.498 116.767 119.781 121.477 118.694C126.188 117.607 130.903 120.555 131.991 125.266L144.306 178.623C145.152 182.287 148.823 184.581 152.488 183.735C156.153 182.89 158.448 179.219 157.602 175.554L145.286 122.197C144.199 117.486 147.146 112.769 151.857 111.682C156.567 110.595 161.283 113.543 162.37 118.254L174.686 171.611C175.531 175.276 179.202 177.57 182.866 176.724C186.532 175.878 188.826 172.207 187.98 168.543L175.665 115.185C174.578 110.474 177.524 105.758 182.234 104.67C186.945 103.583 191.66 106.531 192.747 111.242L205.063 164.6C205.909 168.264 209.579 170.558 213.245 169.712C216.91 168.866 219.204 165.195 218.358 161.531L206.042 108.174C204.955 103.463 207.901 98.7461 212.611 97.6589C217.322 96.5716 222.039 99.5196 223.126 104.23L235.442 157.588C236.287 161.252 239.959 163.546 243.623 162.7C247.289 161.854 249.583 158.183 248.737 154.519L236.422 101.162C235.334 96.4508 238.28 91.7343 242.991 90.647C247.701 89.5598 252.417 92.508 253.504 97.2188L265.82 150.576C266.665 154.241 270.336 156.535 274.002 155.689C277.666 154.843 279.96 151.172 279.114 147.508L266.799 94.1502C265.712 89.4393 268.658 84.7226 273.368 83.6355C278.079 82.5482 282.795 85.4962 283.883 90.207L296.198 143.564C297.044 147.229 300.716 149.523 304.379 148.677C308.045 147.831 310.34 144.16 309.494 140.496L297.178 87.1382C296.091 82.4274 299.037 77.7108 303.748 76.6235C308.458 75.5364 313.173 78.4845 314.261 83.1954L326.576 136.553C327.422 140.217 331.093 142.511 334.759 141.665C338.423 140.819 340.717 137.149 339.871 133.484L327.556 80.1267C326.468 75.4159 329.414 70.6994 334.125 69.6121C338.835 68.5249 343.552 71.4728 344.639 76.1836L356.955 129.541C357.801 133.205 361.472 135.499 365.136 134.654C368.8 133.808 371.094 130.137 370.249 126.473L357.933 73.1153C356.846 68.4044 359.793 63.6874 364.504 62.6001C369.214 61.5129 373.929 64.4613 375.017 69.1721L387.332 122.53C388.178 126.194 391.85 128.488 395.515 127.642C399.179 126.796 401.474 123.125 400.628 119.461L388.312 66.1033C387.225 61.3925 390.171 56.6759 394.882 55.5886C399.592 54.5015 404.309 57.4493 405.396 62.1601L417.712 115.518C418.558 119.182 422.229 121.476 425.893 120.63L426.33 122.525Z" fill="#231F20"/>
<path d="M458.291 33.2132L456.397 33.6505C455.551 29.9847 451.88 27.6907 448.214 28.5368C444.55 29.3826 442.256 33.0533 443.102 36.7191L441.208 37.1564C440.121 32.4462 443.066 27.7297 447.777 26.6423C452.487 25.5552 457.204 28.5031 458.291 33.2132Z" fill="#231F20"/>
<path d="M467.644 112.743C486.6 108.367 494.581 91.1341 490.085 70.751C485.192 50.4574 470.465 38.4656 451.509 42.8409C432.553 47.2162 424.572 64.4494 429.07 84.8342C433.961 105.126 448.688 117.118 467.644 112.743ZM451.054 40.8663C472.181 35.9897 487.432 50.2522 492.059 70.2956C496.685 90.3368 489.227 109.841 468.1 114.718C446.972 119.595 431.721 105.331 427.095 85.2901C422.468 65.2467 429.926 45.7428 451.054 40.8663Z" fill="black"/>
</g>
<defs>
<clipPath id="clip0_6_922">
<rect width="505.403" height="122.802" fill="white" transform="translate(0 113.665) rotate(-12.997)"/>
</clipPath>
</defs>
</svg>
