<svg width="42" height="19" viewBox="0 0 42 19" fill="none" xmlns="http://www.w3.org/2000/svg">
<g clip-path="url(#clip0_9_79)">
<path fill-rule="evenodd" clip-rule="evenodd" d="M41.64 2.08569C41.64 1.07819 40.82 0.260193 39.81 0.260193H2.08502C1.08002 0.260193 0.26001 1.07819 0.26001 2.08569C0.26001 3.09319 1.08002 3.91119 2.08502 3.91119H39.81C40.82 3.91119 41.64 3.09319 41.64 2.08569Z" fill="#FFE301" stroke="#212121" stroke-width="1.04" stroke-miterlimit="10" stroke-linecap="round" stroke-linejoin="round" stroke-dasharray="0.1 0.73 0.1 0.73"/>
<path fill-rule="evenodd" clip-rule="evenodd" d="M41.64 9.29019C41.64 8.28269 40.82 7.46469 39.81 7.46469H2.08502C1.08002 7.46469 0.26001 8.28269 0.26001 9.29019C0.26001 10.2977 1.08002 11.1157 2.08502 11.1157H39.81C40.82 11.1157 41.64 10.2977 41.64 9.29019Z" fill="#FFE301" stroke="#212121" stroke-width="1.04" stroke-miterlimit="10" stroke-linecap="round" stroke-linejoin="round" stroke-dasharray="0.1 0.73 0.1 0.73"/>
<path fill-rule="evenodd" clip-rule="evenodd" d="M41.64 16.5922C41.64 15.5847 40.82 14.7667 39.81 14.7667H2.08502C1.08002 14.7667 0.26001 15.5847 0.26001 16.5922C0.26001 17.5997 1.08002 18.4177 2.08502 18.4177H39.81C40.82 18.4177 41.64 17.5997 41.64 16.5922Z" fill="#FFE301" stroke="#212121" stroke-width="1.04" stroke-miterlimit="10" stroke-linecap="round" stroke-linejoin="round" stroke-dasharray="0.1 0.73 0.1 0.73"/>
</g>
<defs>
<clipPath id="clip0_9_79">
<rect width="42" height="19" fill="white"/>
</clipPath>
</defs>
</svg>
