<svg width="26" height="26" viewBox="0 0 26 26" fill="none" xmlns="http://www.w3.org/2000/svg">
<path d="M23.8333 0H2.16667C1.59223 0.000656958 1.04151 0.229141 0.635328 0.635328C0.229141 1.04151 0.000656958 1.59223 0 2.16667V23.8333C0.000656958 24.4078 0.229141 24.9585 0.635328 25.3647C1.04151 25.7709 1.59223 25.9993 2.16667 26H23.8333C24.4078 25.9993 24.9585 25.7709 25.3647 25.3647C25.7709 24.9585 25.9993 24.4078 26 23.8333V2.16667C25.9993 1.59223 25.7709 1.04151 25.3647 0.635328C24.9585 0.229141 24.4078 0.000656958 23.8333 0ZM8.66667 19.5001C8.66667 19.7874 8.55253 20.063 8.34937 20.2662C8.1462 20.4693 7.87065 20.5835 7.58333 20.5835C7.29602 20.5835 7.02047 20.4693 6.8173 20.2662C6.61414 20.063 6.5 19.7874 6.5 19.5001V10.8335C6.5 10.5461 6.61414 10.2706 6.8173 10.0674C7.02047 9.86426 7.29602 9.75013 7.58333 9.75013C7.87065 9.75013 8.1462 9.86426 8.34937 10.0674C8.55253 10.2706 8.66667 10.5461 8.66667 10.8335V19.5001ZM7.58333 8.12513C7.26194 8.12513 6.94776 8.02982 6.68053 7.85127C6.4133 7.67271 6.20502 7.41892 6.08203 7.12199C5.95904 6.82506 5.92686 6.49833 5.98956 6.18311C6.05226 5.86789 6.20702 5.57834 6.43428 5.35108C6.66155 5.12382 6.95109 4.96905 7.26631 4.90635C7.58153 4.84365 7.90826 4.87583 8.20519 4.99882C8.50212 5.12182 8.75591 5.3301 8.93447 5.59733C9.11303 5.86456 9.20833 6.17873 9.20833 6.50013C9.20833 6.9311 9.03713 7.34443 8.73238 7.64918C8.42764 7.95392 8.01431 8.12513 7.58333 8.12513ZM20.5833 19.5001C20.5833 19.7874 20.4692 20.063 20.266 20.2662C20.0629 20.4693 19.7873 20.5835 19.5 20.5835C19.2127 20.5835 18.9371 20.4693 18.734 20.2662C18.5308 20.063 18.4167 19.7874 18.4167 19.5001V14.6251C18.4167 13.9068 18.1313 13.218 17.6234 12.71C17.1155 12.2021 16.4266 11.9168 15.7083 11.9168C14.99 11.9168 14.3012 12.2021 13.7933 12.71C13.2853 13.218 13 13.9068 13 14.6251V19.5001C13 19.7874 12.8859 20.063 12.6827 20.2662C12.4795 20.4693 12.204 20.5835 11.9167 20.5835C11.6293 20.5835 11.3538 20.4693 11.1506 20.2662C10.9475 20.063 10.8333 19.7874 10.8333 19.5001V10.8335C10.8332 10.5672 10.9313 10.3102 11.1087 10.1116C11.2861 9.91298 11.5305 9.78673 11.7951 9.75693C12.0597 9.72713 12.3261 9.79588 12.5432 9.95004C12.7604 10.1042 12.9131 10.333 12.9722 10.5926C13.7049 10.0947 14.5594 9.806 15.4438 9.75745C16.3283 9.7089 17.2093 9.90239 17.992 10.3171C18.7747 10.7318 19.4296 11.352 19.8862 12.1111C20.3428 12.8702 20.5838 13.7393 20.5833 14.6251V19.5001Z" fill="#212121"/>
</svg>
