<svg width="150" height="60" viewBox="0 0 150 60" fill="none" xmlns="http://www.w3.org/2000/svg">
<g clip-path="url(#clip0_6_696)">
<path d="M138.284 9.98349C136.689 4.51061 131.672 0.5 125.736 0.5C119.799 0.5 114.782 4.51024 113.187 9.98312C112.118 10.644 111.106 11.3889 110.161 12.2167C107.761 9.45489 104.248 7.69964 100.329 7.69964C97.8308 7.69964 95.4934 8.40915 93.5059 9.63933C91.5182 8.40915 89.1809 7.69964 86.6824 7.69964C84.184 7.69964 81.8472 8.40915 79.859 9.63933C77.8714 8.40915 75.5347 7.69964 73.0362 7.69964C70.5379 7.69964 68.2004 8.40915 66.2129 9.63933C64.2254 8.40915 61.8879 7.69964 59.3894 7.69964H55.9781C54.0574 7.69964 52.272 8.27123 50.767 9.24498C49.1476 8.0133 47.1394 7.27429 44.9551 7.27429H44.0679C41.3641 7.27429 38.9224 8.39591 37.167 10.1992C33.4971 7.83718 29.1101 6.51372 24.2649 6.51372C10.2042 6.51372 0.000488281 17.653 0.000488281 32.9995C0.000488281 48.3461 10.2042 59.4846 24.2649 59.4846C29.1102 59.4846 33.4974 58.1612 37.1671 55.7991C38.9224 57.6024 41.3642 58.724 44.0679 58.724H44.9551C49.6714 58.724 53.5945 55.3178 54.4502 50.8125C56.5727 55.2164 61.0404 58.2667 66.2129 58.2667C68.7112 58.2667 71.048 57.5563 73.0362 56.327C75.0239 57.5563 77.3614 58.2667 79.8597 58.2667C82.3581 58.2667 84.6949 57.5572 86.6824 56.327C88.6707 57.5572 91.0075 58.2667 93.5059 58.2667C96.0042 58.2667 98.341 57.5572 100.329 56.327C102.317 57.5572 104.653 58.2667 107.152 58.2667C109.473 58.2667 111.602 57.44 113.27 56.0655C116.85 58.2568 121.079 59.4846 125.735 59.4846C139.795 59.4846 150 48.3461 150 32.9995C150 22.7745 145.466 14.4232 138.284 9.98349Z" fill="#FFE100"/>
<path d="M107.152 49.1547C105.036 49.1547 103.315 47.4185 103.315 45.2843V21.1102C103.315 19.4501 101.975 18.0988 100.329 18.0988C98.6824 18.0988 97.3425 19.4501 97.3425 21.1102V45.2843C97.3425 47.4185 95.6216 49.1547 93.5056 49.1547C91.3896 49.1547 89.6688 47.4185 89.6688 45.2843V21.1102C89.6688 19.4501 88.3289 18.0988 86.6823 18.0988C85.0363 18.0988 83.6964 19.4501 83.6964 21.1102V45.2843C83.6964 47.4185 81.9748 49.1547 79.8588 49.1547C77.7428 49.1547 76.022 47.4185 76.022 45.2843V21.1102C76.022 19.4501 74.682 18.0988 73.0361 18.0988C71.3894 18.0988 70.0495 19.4501 70.0495 21.1102V45.2843C70.0495 47.4185 68.3286 49.1547 66.2126 49.1547C64.0966 49.1547 62.3759 47.4185 62.3759 45.2843V21.1102C62.3759 19.4501 61.0359 18.0988 59.3892 18.0988H55.9779V17.2405H59.3892C61.5052 17.2405 63.2268 18.9761 63.2268 21.1102V45.2843C63.2268 46.9451 64.5666 48.2964 66.2126 48.2964C67.8586 48.2964 69.1985 46.9451 69.1985 45.2843V21.1102C69.1985 18.9761 70.92 17.2405 73.0361 17.2405C75.1521 17.2405 76.8729 18.9761 76.8729 21.1102V45.2843C76.8729 46.9451 78.2128 48.2964 79.8588 48.2964C81.5055 48.2964 82.8454 46.9451 82.8454 45.2843V21.1102C82.8454 18.9761 84.5661 17.2405 86.6823 17.2405C88.7983 17.2405 90.5198 18.9761 90.5198 21.1102V45.2843C90.5198 46.9451 91.8596 48.2964 93.5056 48.2964C95.1516 48.2964 96.4915 46.9451 96.4915 45.2843V21.1102C96.4915 18.9761 98.213 17.2405 100.329 17.2405C102.445 17.2405 104.166 18.9761 104.166 21.1102V45.2843C104.166 46.9451 105.506 48.2964 107.152 48.2964V49.1547Z" fill="#212121"/>
<path d="M24.2646 49.0488C32.7801 49.0488 37.8805 42.4285 37.9697 33.2145C37.8805 23.9997 32.7801 17.3793 24.2646 17.3793C15.7491 17.3793 10.6487 23.9997 10.5603 33.2145C10.6487 42.4285 15.7491 49.0488 24.2646 49.0488ZM24.2646 16.4845C33.7557 16.4845 38.8561 24.1338 38.8561 33.2145C38.8561 42.2943 33.7557 49.9436 24.2646 49.9436C14.7735 49.9436 9.6731 42.2943 9.6731 33.2145C9.6731 24.1338 14.7735 16.4845 24.2646 16.4845Z" fill="#212121"/>
<path d="M44.955 17.2452H44.0677V49.1829H44.955V17.2452Z" fill="#212121"/>
<path d="M129.573 13.9114H128.722C128.722 12.2506 127.382 10.8993 125.736 10.8993C124.089 10.8993 122.749 12.2506 122.749 13.9114H121.899C121.899 11.7773 123.62 10.041 125.736 10.041C127.852 10.041 129.573 11.7773 129.573 13.9114Z" fill="#212121"/>
<path d="M125.735 49.0488C134.251 49.0488 139.351 42.4285 139.441 33.2145C139.351 23.9997 134.251 17.3793 125.735 17.3793C117.22 17.3793 112.12 23.9997 112.031 33.2145C112.12 42.4285 117.22 49.0488 125.735 49.0488ZM125.735 16.4845C135.227 16.4845 140.327 24.1338 140.327 33.2145C140.327 42.2943 135.227 49.9436 125.735 49.9436C116.244 49.9436 111.144 42.2943 111.144 33.2145C111.144 24.1338 116.244 16.4845 125.735 16.4845Z" fill="#212121"/>
</g>
<defs>
<clipPath id="clip0_6_696">
<rect width="150" height="59" fill="white" transform="translate(0 0.5)"/>
</clipPath>
</defs>
</svg>
