<svg width="594" height="203" viewBox="0 0 594 203" fill="none" xmlns="http://www.w3.org/2000/svg">
<g clip-path="url(#clip0_6_711)">
<path d="M421.794 32.6382C416.929 13.8029 401.625 0 383.519 0C365.412 0 350.108 13.8018 345.242 32.6371C341.982 34.9111 338.895 37.4751 336.012 40.3241C328.691 30.8193 317.977 24.7779 306.024 24.7779C298.403 24.7779 291.274 27.2204 285.211 31.4537C279.149 27.2204 272.019 24.7779 264.399 24.7779C256.778 24.7779 249.651 27.2204 243.586 31.4537C237.523 27.2204 230.396 24.7779 222.775 24.7779C215.155 24.7779 208.025 27.2204 201.962 31.4537C195.9 27.2204 188.77 24.7779 181.149 24.7779H170.744C164.886 24.7779 159.44 26.7452 154.849 30.0964C149.91 25.8577 143.784 23.3142 137.122 23.3142H134.416C126.169 23.3142 118.721 27.1745 113.367 33.3805C102.173 25.2514 88.7919 20.6963 74.0131 20.6963C31.1265 20.6963 0.000778198 59.033 0.000778198 111.85C0.000778198 164.666 31.1265 203 74.0131 203C88.7924 203 102.174 198.445 113.367 190.316C118.721 196.522 126.169 200.382 134.416 200.382H137.122C151.508 200.382 163.474 188.659 166.084 173.154C172.558 188.311 186.185 198.808 201.962 198.808C209.583 198.808 216.711 196.364 222.775 192.132C228.837 196.364 235.967 198.808 243.588 198.808C251.209 198.808 258.336 196.366 264.399 192.132C270.463 196.366 277.59 198.808 285.211 198.808C292.832 198.808 299.959 196.366 306.024 192.132C312.087 196.366 319.214 198.808 326.835 198.808C333.915 198.808 340.41 195.964 345.495 191.233C356.414 198.774 369.314 203 383.517 203C426.404 203 457.529 164.666 457.529 111.85C457.529 76.6595 443.7 47.9177 421.794 32.6382Z" fill="#FFE100"/>
<path d="M326.834 167.449C320.38 167.449 315.131 161.474 315.131 154.129V70.9318C315.131 65.2186 311.044 60.568 306.024 60.568C301.001 60.568 296.914 65.2186 296.914 70.9318V154.129C296.914 161.474 291.665 167.449 285.211 167.449C278.757 167.449 273.508 161.474 273.508 154.129V70.9318C273.508 65.2186 269.421 60.568 264.398 60.568C259.378 60.568 255.291 65.2186 255.291 70.9318V154.129C255.291 161.474 250.04 167.449 243.586 167.449C237.131 167.449 231.883 161.474 231.883 154.129V70.9318C231.883 65.2186 227.795 60.568 222.775 60.568C217.752 60.568 213.665 65.2186 213.665 70.9318V154.129C213.665 161.474 208.416 167.449 201.962 167.449C195.508 167.449 190.259 161.474 190.259 154.129V70.9318C190.259 65.2186 186.172 60.568 181.149 60.568H170.744V57.6142H181.149C187.603 57.6142 192.855 63.587 192.855 70.9318V154.129C192.855 159.845 196.941 164.495 201.962 164.495C206.982 164.495 211.07 159.845 211.07 154.129V70.9318C211.07 63.587 216.32 57.6142 222.775 57.6142C229.229 57.6142 234.478 63.587 234.478 70.9318V154.129C234.478 159.845 238.565 164.495 243.586 164.495C248.608 164.495 252.695 159.845 252.695 154.129V70.9318C252.695 63.587 257.944 57.6142 264.398 57.6142C270.853 57.6142 276.104 63.587 276.104 70.9318V154.129C276.104 159.845 280.191 164.495 285.211 164.495C290.232 164.495 294.318 159.845 294.318 154.129V70.9318C294.318 63.587 299.57 57.6142 306.024 57.6142C312.478 57.6142 317.727 63.587 317.727 70.9318V154.129C317.727 159.845 321.814 164.495 326.834 164.495V167.449Z" fill="#212121"/>
<path d="M74.0118 167.084C99.9856 167.084 115.543 144.3 115.815 112.589C115.543 80.8755 99.9856 58.0915 74.0118 58.0915C48.0381 58.0915 32.4807 80.8755 32.2112 112.589C32.4807 144.3 48.0381 167.084 74.0118 167.084ZM74.0118 55.0119C102.962 55.0119 118.519 81.3371 118.519 112.589C118.519 143.838 102.962 170.164 74.0118 170.164C45.0619 170.164 29.505 143.838 29.505 112.589C29.505 81.3371 45.0619 55.0119 74.0118 55.0119Z" fill="#212121"/>
<path d="M137.121 57.6299H134.415V167.546H137.121V57.6299Z" fill="#212121"/>
<path d="M395.22 46.156H392.625C392.625 40.4402 388.538 35.7895 383.517 35.7895C378.494 35.7895 374.407 40.4402 374.407 46.156H371.812C371.812 38.8113 377.063 32.8358 383.517 32.8358C389.971 32.8358 395.22 38.8113 395.22 46.156Z" fill="#212121"/>
<path d="M383.516 167.084C409.489 167.084 425.047 144.3 425.319 112.589C425.047 80.8755 409.489 58.0915 383.516 58.0915C357.542 58.0915 341.985 80.8755 341.715 112.589C341.985 144.3 357.542 167.084 383.516 167.084ZM383.516 55.0119C412.466 55.0119 428.023 81.3371 428.023 112.589C428.023 143.838 412.466 170.164 383.516 170.164C354.566 170.164 339.009 143.838 339.009 112.589C339.009 81.3371 354.566 55.0119 383.516 55.0119Z" fill="#212121"/>
<path d="M489.558 70.3741H486.22V71.3243H485.386V78.9206H486.22V79.8702H489.558V78.9206H490.393V71.3243H489.558V70.3741ZM485.386 69.4244V68.4753H490.393V69.4244H491.227V70.3741H492.061V79.8702H491.227V80.8199H490.393V81.7696H485.386V80.8199H484.551V79.8702H483.716V70.3741H484.551V69.4244H485.386Z" fill="black"/>
<path d="M496.684 81.7696V79.8702H498.353V70.3741H496.684V68.4753H501.691V70.3741H500.022V79.8702H501.691V81.7696H496.684Z" fill="black"/>
<path d="M519.272 81.7696H517.603V68.4753H519.272V70.3741H520.107V71.3243H520.941V72.2734H522.61V71.3243H523.445V70.3741H524.279V68.4753H525.948V81.7696H524.279V73.2231H523.445V74.1727H522.61V76.0721H520.941V74.1727H520.107V73.2231H519.272V81.7696Z" fill="black"/>
<path d="M531.404 79.8697H534.742V78.92H535.576V73.2225H534.742V72.2728H531.404V73.2225H530.569V78.92H531.404V79.8697ZM533.907 66.5753V67.525H534.742V68.4747H535.576V69.4238H533.907V68.4747H532.238V69.4238H530.569V68.4747H531.404V67.525H532.238V66.5753H533.907ZM530.569 81.769V80.8194H529.735V79.8697H528.9V72.2728H529.735V71.3237H530.569V70.3735H535.576V71.3237H536.41V72.2728H537.245V79.8697H536.41V80.8194H535.576V81.769H530.569Z" fill="black"/>
<path d="M547.705 69.4244V68.4747H548.54V74.1722H547.705V70.374H546.871V69.4244H547.705ZM546.871 71.3237H546.036V70.3735L546.871 70.374V71.3237ZM545.202 70.374V74.1722H544.367V68.4747H545.202V69.4244H546.037V70.374H545.202ZM541.864 69.4244H540.195V68.4747H544.367V69.4244H542.699V74.1722H541.864V69.4244Z" fill="black"/>
<path d="M486.223 97.3731H489.561V96.4234H490.395V95.4742H492.064V97.3731H491.229V98.3227H490.395V99.2724H485.388V98.3227H484.554V97.3731H483.719V87.8769H484.554V86.9272H485.388V85.9781H490.395V86.9272H491.229V87.8769H492.064V89.7762H490.395V88.8271H489.561V87.8769H486.223V88.8271H485.388V96.4234H486.223V97.3731Z" fill="black"/>
<path d="M496.684 87.8769V91.6756H500.856V90.7259H501.691V88.8271H500.856V87.8769H496.684ZM497.519 93.5749H496.684V99.2724H495.015V85.9781H501.691V86.9272H502.525V87.8769H503.36V91.6756H502.525V92.6247H501.691V93.5749H500.022V94.5246H500.856V95.4737H501.691V96.4234H502.525V97.3731H503.36V99.2724H501.691V98.3227H500.856V97.3731H500.022V96.4234H499.187V95.4737H498.353V94.5246H497.519V93.5749Z" fill="black"/>
<path d="M514.656 85.9781V87.8769H507.98V91.6756H512.987V93.5749H507.98V97.3731H514.656V99.2724H506.311V85.9781H514.656Z" fill="black"/>
<path d="M519.272 93.5749H524.279V90.7259H523.445V89.7762H522.61V88.827H520.941V89.7762H520.107V90.7259H519.272V93.5749ZM519.272 99.2724H517.603V89.7762H518.437V88.827H519.272V87.8768H520.107V86.9272H520.941V85.978H522.61V86.9272H523.445V87.8768H524.279V88.827H525.114V89.7762H525.948V99.2724H524.279V95.4737H519.272V99.2724Z" fill="black"/>
<path d="M532.239 87.8769H528.901V85.9781H537.246V87.8769H533.907V99.2724H532.239V87.8769Z" fill="black"/>
<path d="M541.865 99.2724V97.3731H543.534V87.8769H541.865V85.9781H546.872V87.8769H545.203V97.3731H546.872V99.2724H541.865Z" fill="black"/>
<path d="M552.327 95.4742H551.492V85.9781H553.162V94.5246H553.996V95.4742H554.83V96.4239H556.499V95.4742H557.334V94.5246H558.168V85.9781H559.837V95.4742H559.002V96.4239H558.168V97.3731H557.334V98.3233H556.499V99.2729H554.83V98.3233H553.996V97.3731H553.162V96.4239H552.327V95.4742Z" fill="black"/>
<path d="M571.133 85.9781V87.8769H564.458V91.6756H569.465V93.5749H564.458V97.3731H571.133V99.2724H562.788V85.9781H571.133Z" fill="black"/>
<path d="M485.388 116.776H483.719V103.481H485.388V105.38H486.222V106.33H487.056V107.28H488.725V106.33H489.56V105.38H490.394V103.481H492.064V116.776H490.394V108.229H489.56V109.179H488.725V111.078H487.056V109.179H486.222V108.229H485.388V116.776Z" fill="black"/>
<path d="M495.849 114.876H495.015V103.481H496.684V113.927H497.518V114.876H500.856V113.927H501.691V103.481H503.359V114.876H502.525V115.826H501.691V116.776H496.684V115.826H495.849V114.876Z" fill="black"/>
<path d="M513.821 105.38H514.655V107.28H512.986V106.33H512.152V105.38H508.814V106.33H507.98V108.229H508.814V109.179H512.986V110.128H513.821V111.078H514.655V114.876H513.821V115.826H512.986V116.776H507.98V115.826H507.145V114.876H506.311V112.977H507.98V113.927H508.814V114.876H512.152V113.927H512.986V112.028H512.152V111.078H507.98V110.128H507.145V109.179H506.311V105.38H507.145V104.431H507.98V103.481H512.986V104.431H513.821V105.38Z" fill="black"/>
<path d="M519.272 116.776V114.876H520.941V105.38H519.272V103.481H524.279V105.38H522.61V114.876H524.279V116.776H519.272Z" fill="black"/>
<path d="M531.404 114.876H534.742V113.927H535.576V112.978H537.245V114.876H536.41V115.826H535.576V116.776H530.569V115.826H529.735V114.876H528.9V105.38H529.735V104.431H530.569V103.481H535.576V104.431H536.41V105.38H537.245V107.28H535.576V106.33H534.742V105.38H531.404V106.33H530.569V113.927H531.404V114.876Z" fill="black"/>
<path d="M485.388 122.883V126.682H489.56V125.732H490.394V123.833H489.56V122.883H485.388ZM485.388 128.581V134.279H483.719V120.984H490.394V121.933H491.229V122.883H492.064V126.682H491.229V127.631H490.394V128.581H485.388Z" fill="black"/>
<path d="M496.684 122.883V126.682H500.856V125.732H501.691V123.833H500.856V122.883H496.684ZM497.519 128.581H496.684V134.279H495.015V120.984H501.691V121.933H502.525V122.883H503.36V126.682H502.525V127.631H501.691V128.581H500.022V129.531H500.856V130.48H501.691V131.43H502.525V132.379H503.36V134.279H501.691V133.329H500.856V132.379H500.022V131.43H499.187V130.48H498.353V129.531H497.519V128.581Z" fill="black"/>
<path d="M512.151 122.883H508.813V123.833H507.979V131.43H508.813V132.379H512.151V131.43H512.985V123.833H512.151V122.883ZM507.979 121.933V120.984H512.985V121.933H513.819V122.883H514.654V132.379H513.819V133.329H512.985V134.279H507.979V133.329H507.144V132.379H506.309V122.883H507.144V121.933H507.979Z" fill="black"/>
<path d="M519.272 122.883V132.379H523.445V131.43H524.279V123.833H523.445V122.883H519.272ZM517.603 134.279V120.984H524.279V121.933H525.114V122.883H525.948V132.379H525.114V133.329H524.279V134.279H517.603Z" fill="black"/>
<path d="M529.734 132.379H528.899V120.984H530.569V131.43H531.403V132.379H534.741V131.43H535.575V120.984H537.244V132.379H536.41V133.329H535.575V134.279H530.569V133.329H529.734V132.379Z" fill="black"/>
<path d="M542.7 132.379H546.038V131.43H546.872V130.48H548.541V132.379H547.707V133.329H546.872V134.279H541.866V133.329H541.031V132.379H540.196V122.883H541.031V121.933H541.866V120.984H546.872V121.933H547.707V122.883H548.541V124.782H546.872V123.833H546.038V122.883H542.7V123.833H541.866V131.43H542.7V132.379Z" fill="black"/>
<path d="M554.827 122.883H551.489V120.984H559.834V122.883H556.495V134.279H554.827V122.883Z" fill="black"/>
<path d="M564.458 134.279V132.379H566.127V122.883H564.458V120.984H569.465V122.883H567.796V132.379H569.465V134.279H564.458Z" fill="black"/>
<path d="M579.925 122.883H576.587V123.833H575.753V131.43H576.587V132.379H579.925V131.43H580.759V123.833H579.925V122.883ZM575.753 121.933V120.984H580.759V121.933H581.593V122.883H582.428V132.379H581.593V133.329H580.759V134.279H575.753V133.329H574.917V132.379H574.083V122.883H574.917V121.933H575.753Z" fill="black"/>
<path d="M587.046 126.682V134.279H585.377V120.984H587.046V123.833H587.881V124.783H588.715V125.732H589.549V126.682H590.384V127.631H591.218V128.581H592.053V120.984H593.722V134.279H592.053V131.43H591.218V130.48H590.384V129.531H589.549V128.581H588.715V127.631H587.881V126.682H587.046Z" fill="black"/>
</g>
<defs>
<clipPath id="clip0_6_711">
<rect width="594" height="203" fill="white"/>
</clipPath>
</defs>
</svg>
