<svg width="163" height="119" viewBox="0 0 163 119" fill="none" xmlns="http://www.w3.org/2000/svg">
<path d="M127.023 18.6962C123.487 11.8729 115.411 8.24087 107.865 10.4919C100.321 12.7423 95.877 20.1089 97.0762 27.6286C94.887 29.9355 93.133 32.5825 91.8353 35.4908C87.7074 31.2417 81.4074 29.3334 75.4369 31.1144C71.8026 32.1985 68.8829 34.4702 66.9665 37.3753C63.6481 36.0318 59.8866 35.753 56.2519 36.8373C52.6171 37.9216 49.697 40.1934 47.7811 43.097C44.463 41.7547 40.7007 41.4763 37.0659 42.5605C33.4311 43.6448 30.5119 45.9164 28.5951 48.8216C25.2771 47.4779 21.5152 47.1993 17.8804 48.2836L13.0837 49.7145C7.67546 51.3278 4.7295 56.9898 6.50345 62.3615L6.89575 63.5495C8.58144 68.6539 13.9242 71.659 19.0922 70.5606L28.3214 98.5078C31.0679 106.825 40.1152 111.559 48.4898 109.061C52.1246 107.977 55.044 105.705 56.9606 102.801C60.2788 104.144 64.0401 104.422 67.6749 103.338C71.3097 102.254 74.2299 99.9823 76.1457 97.0783C79.4639 98.421 83.2265 98.6989 86.8613 97.6146C90.4961 96.5304 93.4154 94.2592 95.3308 91.3553C98.6503 92.6976 102.412 92.9759 106.046 91.8917C109.528 90.8531 111.979 88.134 112.818 84.8969C118.884 87.0365 125.639 87.2474 132.533 85.1907C150.378 79.8676 158.373 62.6253 151.978 43.2617C147.588 29.9663 138.232 21.1773 127.023 18.6962Z" fill="#FFE100"/>
<path d="M102.617 82.2754C99.6445 83.1615 96.4335 81.482 95.458 78.53L84.4089 45.0939C83.6498 42.7968 81.1499 41.4886 78.8365 42.1782C76.5239 42.8676 75.2595 45.298 76.0186 47.5951L87.0677 81.0312C88.0432 83.9832 86.4186 87.1042 83.446 87.9904C80.4731 88.8766 77.2617 87.1972 76.2862 84.2452L65.2371 50.8092C64.478 48.512 61.9777 47.2039 59.6651 47.8933C57.3517 48.583 56.0872 51.0134 56.8463 53.3105L67.8954 86.7466C68.8709 89.6986 67.2468 92.8195 64.2738 93.7057C61.3012 94.5919 58.0903 92.9123 57.1148 89.9603L46.0657 56.5243C45.3066 54.2272 42.8067 52.9189 40.4933 53.6086C38.1807 54.298 36.9163 56.7284 37.6754 59.0255L48.7245 92.4615C49.7 95.4136 48.0754 98.5346 45.1028 99.4207C42.1303 100.307 38.9185 98.6276 37.943 95.6756L26.8939 62.2395C26.1348 59.9424 23.6345 58.6343 21.3223 59.3236L16.5287 60.7526L16.1364 59.5654L20.93 58.1364C23.9026 57.2503 27.1135 58.9312 28.089 61.8833L39.1381 95.3193C39.8969 97.6156 42.3971 98.9232 44.7106 98.2336C47.0231 97.5442 48.2877 95.1142 47.5289 92.818L36.4798 59.3819C35.5043 56.4299 37.128 53.3077 40.101 52.4214C43.0735 51.5353 46.2858 53.2159 47.2613 56.1679L58.3104 89.6039C59.0692 91.9002 61.5694 93.2079 63.8815 92.5186C66.1941 91.8292 67.4586 89.3992 66.6998 87.103L55.6507 53.6669C54.6752 50.7149 56.3003 47.5923 59.2728 46.7062C62.2458 45.8199 65.4567 47.5009 66.4322 50.4529L77.4813 83.8889C78.2401 86.1852 80.7403 87.4929 83.0538 86.8032C85.3659 86.114 86.6309 83.6838 85.8721 81.3876L74.823 47.9515C73.8475 44.9995 75.4712 41.8773 78.4442 40.9911C81.4167 40.1049 84.629 41.7855 85.6045 44.7375L96.6536 78.1736C97.4124 80.4698 99.9121 81.7776 102.225 81.0882L102.617 82.2754Z" fill="#231F20"/>
<path d="M118.753 24.0235L117.556 24.3807C116.796 22.0805 114.294 20.7708 111.978 21.4621C109.662 22.1531 108.396 24.5876 109.155 26.8878L107.958 27.2451C106.982 24.2884 108.609 21.1612 111.585 20.2729C114.561 19.3846 117.777 21.0668 118.753 24.0235Z" fill="#231F20"/>
<path d="M129.065 73.7367C140.978 70.189 145.098 58.9502 141.027 46.2285C136.706 33.5799 126.557 26.591 114.644 30.1388C102.732 33.6865 98.6116 44.9254 102.684 57.6479C107.003 70.2956 117.153 77.2845 129.065 73.7367ZM114.237 28.9072C127.514 24.953 138.132 33.3581 142.267 45.8592C146.402 58.3591 142.75 71.0146 129.473 74.9688C116.196 78.923 105.578 70.5174 101.443 58.0176C97.3079 45.5164 100.96 32.8613 114.237 28.9072Z" fill="black"/>
</svg>
