<svg width="502" height="47" viewBox="0 0 502 47" fill="none" xmlns="http://www.w3.org/2000/svg">
<path d="M258.591 46.7983C255.447 46.7983 252.889 44.2534 252.889 41.124V5.67525C252.889 3.24014 250.898 1.25852 248.45 1.25852C246.004 1.25852 244.013 3.24014 244.013 5.67525V41.124C244.013 44.2534 241.455 46.7983 238.31 46.7983C235.165 46.7983 232.607 44.2534 232.607 41.124V5.67525C232.607 3.24014 230.615 1.25852 228.169 1.25852C225.723 1.25852 223.731 3.24014 223.731 5.67525V41.124C223.731 44.2534 221.173 46.7983 218.028 46.7983C214.883 46.7983 212.326 44.2534 212.326 41.124V5.67525C212.326 3.24014 210.334 1.25852 207.887 1.25852C205.441 1.25852 203.449 3.24014 203.449 5.67525V41.124C203.449 44.2534 200.892 46.7983 197.747 46.7983C194.602 46.7983 192.043 44.2534 192.043 41.124V5.67525C192.043 3.24014 190.052 1.25852 187.606 1.25852C185.159 1.25852 183.168 3.24014 183.168 5.67525V41.124C183.168 44.2534 180.61 46.7983 177.465 46.7983C174.32 46.7983 171.762 44.2534 171.762 41.124V5.67525C171.762 3.24014 169.771 1.25852 167.325 1.25852C164.877 1.25852 162.886 3.24014 162.886 5.67525V41.124C162.886 44.2534 160.328 46.7983 157.183 46.7983C154.039 46.7983 151.48 44.2534 151.48 41.124V5.67525C151.48 3.24014 149.488 1.25852 147.042 1.25852C144.596 1.25852 142.605 3.24014 142.605 5.67525V41.124C142.605 44.2534 140.046 46.7983 136.901 46.7983C133.756 46.7983 131.199 44.2534 131.199 41.124V5.67525C131.199 3.24014 129.207 1.25852 126.761 1.25852C124.314 1.25852 122.322 3.24014 122.322 5.67525V41.124C122.322 44.2534 119.765 46.7983 116.62 46.7983C113.475 46.7983 110.916 44.2534 110.916 41.124V5.67525C110.916 3.24014 108.925 1.25852 106.479 1.25852C104.033 1.25852 102.041 3.24014 102.041 5.67525V41.124C102.041 44.2534 99.4828 46.7983 96.3377 46.7983C93.193 46.7983 90.6354 44.2534 90.6354 41.124V5.67525C90.6354 3.24014 88.644 1.25852 86.1978 1.25852C83.7504 1.25852 81.759 3.24014 81.759 5.67525V41.124C81.759 44.2534 79.2014 46.7983 76.0567 46.7983C72.9119 46.7983 70.3544 44.2534 70.3544 41.124V5.67525C70.3544 3.24014 68.363 1.25852 65.9155 1.25852C63.4693 1.25852 61.4779 3.24014 61.4779 5.67525V41.124C61.4779 44.2534 58.9194 46.7983 55.7743 46.7983C52.6296 46.7983 50.072 44.2534 50.072 41.124V5.67525C50.072 3.24014 48.0806 1.25852 45.6344 1.25852C43.187 1.25852 41.1956 3.24014 41.1956 5.67525V41.124C41.1956 44.2534 38.6384 46.7983 35.4933 46.7983C32.3485 46.7983 29.791 44.2534 29.791 41.124V5.67525C29.791 3.24014 27.7996 1.25852 25.3521 1.25852C22.9059 1.25852 20.9145 3.24014 20.9145 5.67525V41.124C20.9145 44.2534 18.356 46.7983 15.2109 46.7983C12.0662 46.7983 9.50863 44.2534 9.50863 41.124V5.67525C9.50863 3.24014 7.51724 1.25852 5.07107 1.25852H0V0H5.07107C8.21615 0 10.7734 2.54594 10.7734 5.67525V41.124C10.7734 43.5582 12.7648 45.5398 15.2109 45.5398C17.6584 45.5398 19.6498 43.5582 19.6498 41.124V5.67525C19.6498 2.54594 22.2074 0 25.3521 0C28.4972 0 31.0557 2.54594 31.0557 5.67525V41.124C31.0557 43.5582 33.0471 45.5398 35.4933 45.5398C37.9395 45.5398 39.9309 43.5582 39.9309 41.124V5.67525C39.9309 2.54594 42.4897 0 45.6344 0C48.7792 0 51.3368 2.54594 51.3368 5.67525V41.124C51.3368 43.5582 53.3282 45.5398 55.7743 45.5398C58.2218 45.5398 60.2132 43.5582 60.2132 41.124V5.67525C60.2132 2.54594 62.7707 0 65.9155 0C69.0606 0 71.6191 2.54594 71.6191 5.67525V41.124C71.6191 43.5582 73.6105 45.5398 76.0567 45.5398C78.5028 45.5398 80.4943 43.5582 80.4943 41.124V5.67525C80.4943 2.54594 83.0531 0 86.1978 0C89.3426 0 91.9002 2.54594 91.9002 5.67525V41.124C91.9002 43.5582 93.8916 45.5398 96.3377 45.5398C98.7852 45.5398 100.777 43.5582 100.777 41.124V5.67525C100.777 2.54594 103.334 0 106.479 0C109.624 0 112.181 2.54594 112.181 5.67525V41.124C112.181 43.5582 114.173 45.5398 116.62 45.5398C119.066 45.5398 121.058 43.5582 121.058 41.124V5.67525C121.058 2.54594 123.616 0 126.761 0C129.906 0 132.464 2.54594 132.464 5.67525V41.124C132.464 43.5582 134.455 45.5398 136.901 45.5398C139.349 45.5398 141.34 43.5582 141.34 41.124V5.67525C141.34 2.54594 143.898 0 147.042 0C150.187 0 152.745 2.54594 152.745 5.67525V41.124C152.745 43.5582 154.736 45.5398 157.183 45.5398C159.63 45.5398 161.621 43.5582 161.621 41.124V5.67525C161.621 2.54594 164.18 0 167.325 0C170.469 0 173.027 2.54594 173.027 5.67525V41.124C173.027 43.5582 175.018 45.5398 177.465 45.5398C179.912 45.5398 181.903 43.5582 181.903 41.124V5.67525C181.903 2.54594 184.461 0 187.606 0C190.75 0 193.308 2.54594 193.308 5.67525V41.124C193.308 43.5582 195.299 45.5398 197.747 45.5398C200.193 45.5398 202.184 43.5582 202.184 41.124V5.67525C202.184 2.54594 204.742 0 207.887 0C211.032 0 213.59 2.54594 213.59 5.67525V41.124C213.59 43.5582 215.582 45.5398 218.028 45.5398C220.475 45.5398 222.467 43.5582 222.467 41.124V5.67525C222.467 2.54594 225.024 0 228.169 0C231.314 0 233.871 2.54594 233.871 5.67525V41.124C233.871 43.5582 235.863 45.5398 238.31 45.5398C240.756 45.5398 242.748 43.5582 242.748 41.124V5.67525C242.748 2.54594 245.305 0 248.45 0C251.595 0 254.154 2.54594 254.154 5.67525V41.124C254.154 43.5582 256.145 45.5398 258.591 45.5398V46.7983Z" fill="black"/>
<path d="M501.903 46.7983C498.758 46.7983 496.201 44.2534 496.201 41.124V5.67525C496.201 3.24014 494.209 1.25852 491.763 1.25852C489.316 1.25852 487.324 3.24014 487.324 5.67525V41.124C487.324 44.2534 484.767 46.7983 481.622 46.7983C478.477 46.7983 475.918 44.2534 475.918 41.124V5.67525C475.918 3.24014 473.927 1.25852 471.481 1.25852C469.035 1.25852 467.043 3.24014 467.043 5.67525V41.124C467.043 44.2534 464.484 46.7983 461.34 46.7983C458.195 46.7983 455.637 44.2534 455.637 41.124V5.67525C455.637 3.24014 453.646 1.25852 451.2 1.25852C448.752 1.25852 446.761 3.24014 446.761 5.67525V41.124C446.761 44.2534 444.203 46.7983 441.059 46.7983C437.913 46.7983 435.356 44.2534 435.356 41.124V5.67525C435.356 3.24014 433.365 1.25852 430.917 1.25852C428.471 1.25852 426.48 3.24014 426.48 5.67525V41.124C426.48 44.2534 423.921 46.7983 420.776 46.7983C417.631 46.7983 415.074 44.2534 415.074 41.124V5.67525C415.074 3.24014 413.082 1.25852 410.636 1.25852C408.189 1.25852 406.197 3.24014 406.197 5.67525V41.124C406.197 44.2534 403.64 46.7983 400.495 46.7983C397.35 46.7983 394.793 44.2534 394.793 41.124V5.67525C394.793 3.24014 392.801 1.25852 390.354 1.25852C387.908 1.25852 385.916 3.24014 385.916 5.67525V41.124C385.916 44.2534 383.358 46.7983 380.213 46.7983C377.068 46.7983 374.51 44.2534 374.51 41.124V5.67525C374.51 3.24014 372.519 1.25852 370.073 1.25852C367.625 1.25852 365.634 3.24014 365.634 5.67525V41.124C365.634 44.2534 363.077 46.7983 359.932 46.7983C356.787 46.7983 354.229 44.2534 354.229 41.124V5.67525C354.229 3.24014 352.238 1.25852 349.791 1.25852C347.344 1.25852 345.353 3.24014 345.353 5.67525V41.124C345.353 44.2534 342.795 46.7983 339.651 46.7983C336.506 46.7983 333.947 44.2534 333.947 41.124V5.67525C333.947 3.24014 331.956 1.25852 329.51 1.25852C327.062 1.25852 325.071 3.24014 325.071 5.67525V41.124C325.071 44.2534 322.513 46.7983 319.368 46.7983C316.224 46.7983 313.666 44.2534 313.666 41.124V5.67525C313.666 3.24014 311.675 1.25852 309.227 1.25852C306.781 1.25852 304.79 3.24014 304.79 5.67525V41.124C304.79 44.2534 302.232 46.7983 299.087 46.7983C295.943 46.7983 293.384 44.2534 293.384 41.124V5.67525C293.384 3.24014 291.392 1.25852 288.946 1.25852C286.499 1.25852 284.507 3.24014 284.507 5.67525V41.124C284.507 44.2534 281.95 46.7983 278.805 46.7983C275.66 46.7983 273.103 44.2534 273.103 41.124V5.67525C273.103 3.24014 271.111 1.25852 268.664 1.25852C266.218 1.25852 264.226 3.24014 264.226 5.67525V41.124C264.226 44.2534 261.669 46.7983 258.524 46.7983C255.379 46.7983 252.82 44.2534 252.82 41.124V5.67525C252.82 3.24014 250.829 1.25852 248.383 1.25852V0C251.528 0 254.085 2.54594 254.085 5.67525V41.124C254.085 43.5582 256.076 45.5398 258.524 45.5398C260.97 45.5398 262.961 43.5582 262.961 41.124V5.67525C262.961 2.54594 265.519 0 268.664 0C271.809 0 274.367 2.54594 274.367 5.67525V41.124C274.367 43.5582 276.359 45.5398 278.805 45.5398C281.251 45.5398 283.243 43.5582 283.243 41.124V5.67525C283.243 2.54594 285.801 0 288.946 0C292.091 0 294.648 2.54594 294.648 5.67525V41.124C294.648 43.5582 296.64 45.5398 299.087 45.5398C301.533 45.5398 303.525 43.5582 303.525 41.124V5.67525C303.525 2.54594 306.082 0 309.227 0C312.372 0 314.931 2.54594 314.931 5.67525V41.124C314.931 43.5582 316.922 45.5398 319.368 45.5398C321.815 45.5398 323.806 43.5582 323.806 41.124V5.67525C323.806 2.54594 326.365 0 329.51 0C332.654 0 335.212 2.54594 335.212 5.67525V41.124C335.212 43.5582 337.203 45.5398 339.651 45.5398C342.097 45.5398 344.088 43.5582 344.088 41.124V5.67525C344.088 2.54594 346.646 0 349.791 0C352.936 0 355.494 2.54594 355.494 5.67525V41.124C355.494 43.5582 357.486 45.5398 359.932 45.5398C362.378 45.5398 364.369 43.5582 364.369 41.124V5.67525C364.369 2.54594 366.928 0 370.073 0C373.218 0 375.775 2.54594 375.775 5.67525V41.124C375.775 43.5582 377.767 45.5398 380.213 45.5398C382.66 45.5398 384.652 43.5582 384.652 41.124V5.67525C384.652 2.54594 387.209 0 390.354 0C393.499 0 396.058 2.54594 396.058 5.67525V41.124C396.058 43.5582 398.049 45.5398 400.495 45.5398C402.941 45.5398 404.933 43.5582 404.933 41.124V5.67525C404.933 2.54594 407.491 0 410.636 0C413.781 0 416.339 2.54594 416.339 5.67525V41.124C416.339 43.5582 418.33 45.5398 420.776 45.5398C423.224 45.5398 425.215 43.5582 425.215 41.124V5.67525C425.215 2.54594 427.773 0 430.917 0C434.062 0 436.621 2.54594 436.621 5.67525V41.124C436.621 43.5582 438.612 45.5398 441.059 45.5398C443.505 45.5398 445.496 43.5582 445.496 41.124V5.67525C445.496 2.54594 448.055 0 451.2 0C454.344 0 456.902 2.54594 456.902 5.67525V41.124C456.902 43.5582 458.893 45.5398 461.34 45.5398C463.787 45.5398 465.778 43.5582 465.778 41.124V5.67525C465.778 2.54594 468.336 0 471.481 0C474.626 0 477.183 2.54594 477.183 5.67525V41.124C477.183 43.5582 479.174 45.5398 481.622 45.5398C484.068 45.5398 486.059 43.5582 486.059 41.124V5.67525C486.059 2.54594 488.618 0 491.763 0C494.908 0 497.465 2.54594 497.465 5.67525V41.124C497.465 43.5582 499.457 45.5398 501.903 45.5398V46.7983Z" fill="black"/>
</svg>
