<svg width="26" height="27" viewBox="0 0 26 27" fill="none" xmlns="http://www.w3.org/2000/svg">
<path d="M13 0C10.742 0.00060941 8.52314 0.589164 6.56171 1.70774C4.60028 2.82631 2.96392 4.43634 1.81369 6.37937C0.663456 8.32241 0.038995 10.5315 0.00176784 12.7891C-0.0354593 15.0468 0.515831 17.2752 1.60138 19.2551L0.533019 22.9945C0.435004 23.3374 0.430488 23.7004 0.519939 24.0456C0.60939 24.3909 0.789553 24.706 1.04176 24.9582C1.29396 25.2104 1.60902 25.3906 1.9543 25.4801C2.29957 25.5695 2.66249 25.565 3.00544 25.467L6.74494 24.3987C8.48272 25.3522 10.4155 25.8958 12.3956 25.9878C14.3757 26.0798 16.3506 25.7178 18.1693 24.9296C19.988 24.1413 21.6024 22.9475 22.889 21.4397C24.1757 19.9318 25.1005 18.1496 25.5927 16.2295C26.085 14.3094 26.1317 12.3022 25.7292 10.3612C25.3267 8.42032 24.4858 6.59713 23.2707 5.03105C22.0555 3.46498 20.4984 2.1975 18.7183 1.32551C16.9381 0.453532 14.9822 0.000138674 13 0ZM16.0156 21C16.0119 21.0029 16.0051 21 15.9998 21C14.554 21 13.1223 20.7149 11.7867 20.1612C10.4512 19.6074 9.23785 18.7958 8.21622 17.7727C7.19458 16.7496 6.38466 15.5351 5.83278 14.1988C5.28091 12.8624 4.9979 11.4303 4.99994 9.9845C5.0045 8.79385 5.48056 7.6535 6.32393 6.81304C7.1673 5.97257 8.30929 5.50045 9.49994 5.5C9.82803 5.50041 10.1502 5.58734 10.434 5.752C10.7178 5.91666 10.9531 6.15324 11.1163 6.43787L12.5776 8.99549C12.7537 9.30402 12.8445 9.65382 12.8407 10.009C12.8369 10.3642 12.7387 10.712 12.5562 11.0167L11.6673 12.4982C12.1069 13.2603 12.7397 13.8931 13.5018 14.3328L14.9832 13.4439C15.2879 13.2613 15.6357 13.1631 15.9909 13.1593C16.3461 13.1555 16.696 13.2462 17.0045 13.4222L19.562 14.8837C19.8466 15.0468 20.0833 15.2821 20.2479 15.5659C20.4126 15.8497 20.4995 16.1719 20.4999 16.5C20.4995 17.6906 20.0274 18.8326 19.1869 19.6759C18.3465 20.5193 17.2062 20.9954 16.0156 21Z" fill="#212121"/>
<path d="M14.0562 16.3324C13.9179 16.4154 13.7616 16.4637 13.6006 16.4733C13.4396 16.4828 13.2787 16.4531 13.1316 16.387C11.5676 15.6843 10.3156 14.4324 9.61298 12.8684C9.54683 12.7213 9.51724 12.5604 9.52674 12.3994C9.53624 12.2384 9.58455 12.082 9.66755 11.9437L10.8411 9.98767L9.42036 7.50122C8.77353 7.52151 8.1598 7.79196 7.70835 8.25563C7.2569 8.71931 7.00295 9.34004 6.99995 9.98718C6.99827 11.1702 7.22982 12.3419 7.68136 13.4353C8.1329 14.5287 8.79557 15.5223 9.63146 16.3594C10.4674 17.1965 11.4601 17.8606 12.5528 18.3137C13.6456 18.7668 14.817 19 15.9999 19H16.0128C16.6599 18.997 17.2806 18.743 17.7443 18.2916C18.208 17.8401 18.4784 17.2264 18.4987 16.5796L16.0123 15.1588L14.0562 16.3324Z" fill="#212121"/>
</svg>
